<svg fill="none" xmlns="http://www.w3.org/2000/svg" viewBox="0 0 740.48 862.38">
<path d="M478.726 111.657V60H596.726V233.091L740.451 381H633.726V416.26L618.645 426.82C610.757 420.991 602.543 415.723 594.065 411.023L603.86 355.484L462.421 330.545L452.842 384.862C441.969 386.392 431.153 388.726 420.484 391.879L388.73 346.529L271.083 428.906L302.837 474.256C296.616 482.674 291.032 491.463 286.099 500.548L228.655 490.419L203.716 631.858L261.159 641.986C262.688 652.211 264.93 662.379 267.896 672.417L222.546 704.172L237.83 726H113.726V381H0L370.226 0L478.726 111.657Z" fill="#999999"/>
<path d="M410.799 421.633C431.326 413.519 452.734 408.997 474.163 407.917L482.7 359.506L574.898 375.763L566.208 425.046C584.672 433.255 602.031 444.312 617.57 458.092L662.116 426.901L715.815 503.591L671.269 534.782C679.143 554.704 683.632 575.454 684.878 596.249L735.539 605.182L719.282 697.381L668.621 688.448C660.338 707.562 649.022 725.525 634.809 741.552L666.001 786.099L589.311 839.798L558.119 795.251C538.804 802.886 518.711 807.339 498.552 808.739L489.097 862.368L396.898 846.111L406.2 793.353C386.433 785.009 367.863 773.438 351.348 758.793L311.063 787.001L257.364 710.311L297.65 682.103C289.775 662.181 285.285 641.431 284.039 620.636L232.677 611.579L248.935 519.38L300.296 528.437C308.579 509.322 319.896 491.359 334.109 475.332L305.901 435.046L382.591 381.347L410.799 421.633Z" fill="#999999"/>
</svg>